<svg width="15" height="15" viewBox="0 0 15 15" fill="none" xmlns="http://www.w3.org/2000/svg">
<g clip-path="url(#clip0)">
<path d="M0.213379 1.25161C-0.0678711 0.97036 -0.0678711 0.502266 0.213379 0.211182C0.504463 -0.0700684 0.962723 -0.0700684 1.25381 0.211182L7.49703 6.4649L13.7507 0.211182C14.032 -0.0700684 14.5001 -0.0700684 14.7807 0.211182C15.0718 0.502266 15.0718 0.971016 14.7807 1.25161L8.53746 7.49549L14.7807 13.7492C15.0718 14.0305 15.0718 14.4986 14.7807 14.7896C14.4994 15.0709 14.0313 15.0709 13.7507 14.7896L7.49703 8.53592L1.25381 14.7896C0.962723 15.0709 0.504463 15.0709 0.213379 14.7896C-0.0678711 14.4986 -0.0678711 14.0298 0.213379 13.7492L6.4566 7.49549L0.213379 1.25161Z" fill="white"/>
</g>
<defs>
<clipPath id="clip0">
<rect width="15" height="15" fill="white"/>
</clipPath>
</defs>
</svg>
